<mxfile host="app.diagrams.net" modified="2023-06-09T19:06:45.682Z" agent="Mozilla/5.0 (X11; Linux x86_64; rv:109.0) Gecko/20100101 Firefox/114.0" version="21.3.6" etag="mqpEbvEOPG9W4-Id8Pw5" type="github">
  <diagram name="Page-1" id="zr8N63ExD05jl4ijWp9R">
    <mxGraphModel>
      <root>
        <mxCell id="0" />
        <mxCell id="1" parent="0" />
      </root>
    </mxGraphModel>
  </diagram>
</mxfile>
